# This file uses centimeters as units for non-parametric coordinates.

mtllib Fan_Block.mtl
g default
v -4.000000 -0.089374 4.000000
v -2.000000 -0.089374 4.000000
v -4.000000 0.089374 4.000000
v -2.000000 0.089374 4.000000
v -4.000000 0.089374 2.000000
v -2.000000 0.089374 2.000000
v -4.000000 -0.089374 2.000000
v -2.000000 -0.089374 2.000000
vt 0.038827 0.801949
vt 0.269493 0.802050
vt 0.266255 0.842196
vt 0.035589 0.842095
vt 0.555398 0.838940
vt 0.294652 0.842357
vt 0.294691 0.802952
vt 0.555438 0.799535
vt 0.621235 0.041723
vt 0.950715 0.041723
vt 0.950715 0.371203
vt 0.621235 0.371203
vt 0.092531 0.717714
vt 0.092531 0.388234
vt 0.422011 0.388234
vt 0.422011 0.717714
vt 0.032859 0.922925
vt 0.263525 0.923027
vt 0.260287 0.963173
vt 0.029621 0.963072
vt 0.283790 0.902875
vt 0.557553 0.903622
vt 0.555811 0.944986
vt 0.282047 0.944239
vn 0.000000 0.000000 1.000000
vn 0.000000 0.000000 1.000000
vn 0.000000 0.000000 1.000000
vn 0.000000 0.000000 1.000000
vn 0.000000 1.000000 0.000000
vn 0.000000 1.000000 0.000000
vn 0.000000 1.000000 0.000000
vn 0.000000 1.000000 0.000000
vn 0.000000 0.000000 -1.000000
vn 0.000000 0.000000 -1.000000
vn 0.000000 0.000000 -1.000000
vn 0.000000 0.000000 -1.000000
vn 0.000000 -1.000000 0.000000
vn 0.000000 -1.000000 0.000000
vn 0.000000 -1.000000 0.000000
vn 0.000000 -1.000000 0.000000
vn 1.000000 0.000000 0.000000
vn 1.000000 0.000000 0.000000
vn 1.000000 0.000000 0.000000
vn 1.000000 0.000000 0.000000
vn -1.000000 0.000000 0.000000
vn -1.000000 0.000000 0.000000
vn -1.000000 0.000000 0.000000
vn -1.000000 0.000000 0.000000
s off
g Fan_Block
usemtl lambert4SG
f 1/17/1 2/18/2 4/19/3 3/20/4
f 3/9/5 4/10/6 6/11/7 5/12/8
f 5/21/9 6/22/10 8/23/11 7/24/12
f 7/13/13 8/14/14 2/15/15 1/16/16
f 2/1/17 8/2/18 6/3/19 4/4/20
f 7/5/21 1/6/22 3/7/23 5/8/24
