# This file uses centimeters as units for non-parametric coordinates.

mtllib Hard_Drive_Block.mtl
g default
v -1.000000 0.103076 3.500000
v 1.000000 0.103076 3.500000
v -1.000000 -0.103076 3.500000
v 1.000000 -0.103076 3.500000
v -1.000000 -0.103076 6.500000
v 1.000000 -0.103076 6.500000
v -1.000000 0.103076 6.500000
v 1.000000 0.103076 6.500000
vt 0.173624 0.913968
vt 0.499831 0.913968
vt 0.499831 0.951833
vt 0.173624 0.951833
vt 0.550668 0.882496
vt 0.876876 0.882496
vt 0.876876 0.920362
vt 0.550668 0.920362
vt 0.233023 0.343576
vt 0.233023 0.014096
vt 0.677033 0.014096
vt 0.677033 0.343576
vt 0.660287 0.375292
vt 0.658275 0.704766
vt 0.233906 0.702175
vt 0.235918 0.372701
vt 0.171203 0.808316
vt 0.497410 0.808316
vt 0.497410 0.846181
vt 0.171203 0.846181
vt 0.562978 0.740099
vt 0.889186 0.740099
vt 0.889186 0.777964
vt 0.562978 0.777964
vn 0.000000 -0.000000 -1.000000
vn 0.000000 -0.000000 -1.000000
vn 0.000000 -0.000000 -1.000000
vn 0.000000 -0.000000 -1.000000
vn 0.000000 -1.000000 0.000000
vn 0.000000 -1.000000 0.000000
vn 0.000000 -1.000000 0.000000
vn 0.000000 -1.000000 0.000000
vn 0.000000 0.000000 1.000000
vn 0.000000 0.000000 1.000000
vn 0.000000 0.000000 1.000000
vn 0.000000 0.000000 1.000000
vn 0.000000 1.000000 -0.000000
vn 0.000000 1.000000 -0.000000
vn 0.000000 1.000000 -0.000000
vn 0.000000 1.000000 -0.000000
vn 1.000000 -0.000000 0.000000
vn 1.000000 -0.000000 0.000000
vn 1.000000 -0.000000 0.000000
vn 1.000000 -0.000000 0.000000
vn -1.000000 0.000000 0.000000
vn -1.000000 0.000000 0.000000
vn -1.000000 0.000000 0.000000
vn -1.000000 0.000000 0.000000
s off
g Hardrive_Block
usemtl lambert5SG
f 1/17/1 2/18/2 4/19/3 3/20/4
f 3/9/5 4/10/6 6/11/7 5/12/8
f 5/21/9 6/22/10 8/23/11 7/24/12
f 7/13/13 8/14/14 2/15/15 1/16/16
f 2/1/17 8/2/18 6/3/19 4/4/20
f 7/5/21 1/6/22 3/7/23 5/8/24
