# This file uses centimeters as units for non-parametric coordinates.

mtllib Ram_Block.mtl
g default
v 0.500000 0.141957 2.000000
v -0.500000 0.141957 2.000000
v 0.500000 -0.141957 2.000000
v -0.500000 -0.141957 2.000000
v 0.500000 -0.141957 -1.000000
v -0.500000 -0.141957 -1.000000
v 0.500000 0.141957 -1.000000
v -0.500000 0.141957 -1.000000
vt 0.034670 0.793456
vt 0.987395 0.793456
vt 0.987395 0.873080
vt 0.034670 0.873080
vt 0.018973 0.673214
vt 0.976332 0.667804
vt 0.987917 0.762242
vt 0.030557 0.767652
vt 0.970070 0.223500
vt 0.969323 0.408534
vt 0.036820 0.408877
vt 0.037566 0.223844
vt 0.032976 0.646003
vt 0.032401 0.451393
vt 0.983831 0.448585
vt 0.984405 0.643195
vt 0.058472 0.030834
vt 0.557684 0.031034
vt 0.557379 0.173309
vt 0.058167 0.173109
vt 0.591450 0.050122
vt 0.973347 0.050122
vt 0.973347 0.164374
vt 0.591450 0.164374
vn 0.000000 0.000000 1.000000
vn 0.000000 0.000000 1.000000
vn 0.000000 0.000000 1.000000
vn 0.000000 0.000000 1.000000
vn -0.000000 -1.000000 0.000000
vn -0.000000 -1.000000 0.000000
vn -0.000000 -1.000000 0.000000
vn -0.000000 -1.000000 0.000000
vn -0.000000 0.000000 -1.000000
vn -0.000000 0.000000 -1.000000
vn -0.000000 0.000000 -1.000000
vn -0.000000 0.000000 -1.000000
vn 0.000000 1.000000 0.000000
vn 0.000000 1.000000 0.000000
vn 0.000000 1.000000 0.000000
vn 0.000000 1.000000 0.000000
vn -1.000000 0.000000 0.000000
vn -1.000000 0.000000 0.000000
vn -1.000000 0.000000 0.000000
vn -1.000000 0.000000 0.000000
vn 1.000000 -0.000000 0.000000
vn 1.000000 -0.000000 0.000000
vn 1.000000 -0.000000 0.000000
vn 1.000000 -0.000000 0.000000
s off
g Ram_Block
usemtl lambert2SG
f 1/17/1 2/18/2 4/19/3 3/20/4
f 3/9/5 4/10/6 6/11/7 5/12/8
f 5/21/9 6/22/10 8/23/11 7/24/12
f 7/13/13 8/14/14 2/15/15 1/16/16
f 2/1/17 8/2/18 6/3/19 4/4/20
f 7/5/21 1/6/22 3/7/23 5/8/24
