# This file uses centimeters as units for non-parametric coordinates.

mtllib Switch_Block.mtl
g default
v 0.800000 -0.255964 1.000000
v 1.800000 -0.255964 1.000000
v 0.800000 0.255964 1.000000
v 1.800000 0.255964 1.000000
v 0.800000 0.255964 0.000000
v 1.800000 0.255964 0.000000
v 0.800000 -0.255964 0.000000
v 1.800000 -0.255964 0.000000
vt 0.375000 0.000000
vt 0.625000 0.000000
vt 0.375000 0.250000
vt 0.625000 0.250000
vt 0.375000 0.500000
vt 0.625000 0.500000
vt 0.375000 0.750000
vt 0.625000 0.750000
vt 0.375000 1.000000
vt 0.625000 1.000000
vt 0.875000 0.000000
vt 0.875000 0.250000
vt 0.125000 0.000000
vt 0.125000 0.250000
vn 0.000000 0.000000 1.000000
vn 0.000000 0.000000 1.000000
vn 0.000000 0.000000 1.000000
vn 0.000000 0.000000 1.000000
vn 0.000000 1.000000 0.000000
vn 0.000000 1.000000 0.000000
vn 0.000000 1.000000 0.000000
vn 0.000000 1.000000 0.000000
vn 0.000000 0.000000 -1.000000
vn 0.000000 0.000000 -1.000000
vn 0.000000 0.000000 -1.000000
vn 0.000000 0.000000 -1.000000
vn 0.000000 -1.000000 0.000000
vn 0.000000 -1.000000 0.000000
vn 0.000000 -1.000000 0.000000
vn 0.000000 -1.000000 0.000000
vn 1.000000 0.000000 0.000000
vn 1.000000 0.000000 0.000000
vn 1.000000 0.000000 0.000000
vn 1.000000 0.000000 0.000000
vn -1.000000 0.000000 0.000000
vn -1.000000 0.000000 0.000000
vn -1.000000 0.000000 0.000000
vn -1.000000 0.000000 0.000000
s off
g Switch_Base_Block
usemtl lambert6SG
f 1/1/1 2/2/2 4/4/3 3/3/4
f 3/3/5 4/4/6 6/6/7 5/5/8
f 5/5/9 6/6/10 8/8/11 7/7/12
f 7/7/13 8/8/14 2/10/15 1/9/16
f 2/2/17 8/11/18 6/12/19 4/4/20
f 7/13/21 1/1/22 3/3/23 5/14/24
g default
v 1.112093 0.251662 0.812250
v 1.487151 0.251662 0.812250
v 1.112093 0.453386 0.746209
v 1.487151 0.453386 0.746209
v 1.112093 0.256085 0.143545
v 1.487151 0.256085 0.143545
v 1.112093 0.054361 0.209586
v 1.487151 0.054361 0.209586
vt 0.001890 0.787451
vt 0.331370 0.787451
vt 0.331370 0.879085
vt 0.001890 0.879085
vt 0.365866 0.783902
vt 0.695346 0.783902
vt 0.695346 0.882635
vt 0.365866 0.882635
vt 0.389410 0.301297
vt 0.389410 0.032167
vt 0.826724 0.032167
vt 0.826724 0.301297
vt 0.386572 0.640641
vt 0.387494 0.357847
vt 0.851155 0.359359
vt 0.850233 0.642153
vt 0.001890 0.013717
vt 0.331370 0.013717
vt 0.331370 0.215399
vt 0.001890 0.215399
vt 0.323189 0.433684
vt 0.001121 0.433928
vt 0.000919 0.228789
vt 0.322987 0.228544
vn 0.000000 0.311133 0.950366
vn 0.000000 0.311133 0.950366
vn 0.000000 0.311133 0.950366
vn 0.000000 0.311133 0.950366
vn 0.000000 0.950366 -0.311133
vn 0.000000 0.950366 -0.311133
vn 0.000000 0.950366 -0.311133
vn 0.000000 0.950366 -0.311133
vn 0.000000 -0.311133 -0.950366
vn 0.000000 -0.311133 -0.950366
vn 0.000000 -0.311133 -0.950366
vn 0.000000 -0.311133 -0.950366
vn 0.000000 -0.950366 0.311133
vn 0.000000 -0.950366 0.311133
vn 0.000000 -0.950366 0.311133
vn 0.000000 -0.950366 0.311133
vn 1.000000 0.000000 0.000000
vn 1.000000 0.000000 0.000000
vn 1.000000 0.000000 0.000000
vn 1.000000 0.000000 0.000000
vn -1.000000 0.000000 0.000000
vn -1.000000 0.000000 0.000000
vn -1.000000 0.000000 0.000000
vn -1.000000 0.000000 0.000000
s off
g Switch_Switch_Block
usemtl lambert7SG
f 9/31/25 10/32/26 12/33/27 11/34/28
f 11/23/29 12/24/30 14/25/31 13/26/32
f 13/35/33 14/36/34 16/37/35 15/38/36
f 15/27/37 16/28/38 10/29/39 9/30/40
f 10/15/41 16/16/42 14/17/43 12/18/44
f 15/19/45 9/20/46 11/21/47 13/22/48
